<svg id="fi_18561709" enable-background="new 0 0 100 100" viewBox="0 0 100 100" width="24"
                                height="24" xmlns="http://www.w3.org/2000/svg">
                                <g fill="#00adf6">
                                    <path
                                        d="m31.7299805 37.9399414h-26.0999766l12.2199717-15.3898926c1.0300293-1.3000488 2.6000366-2.0600586 4.2600098-2.0600586h55.7800293c1.6599731 0 3.2299805.7600098 4.2600098 2.0600586l12.2199707 15.3898926h-26.0999757c-.9559097-.0038223-1.8684692.4965973-2.4200439 1.2700195-.1930084.3238945-.351265.6498756-.4399719 1.020031-1.9200135 8.5200081-10.3700257 13.8699837-18.8799744 11.9499397-5.960022-1.3399658-10.6200562-5.9899902-11.9500122-11.9499512-.1060982-.3543968-.2446785-.7065315-.4500122-1.0200195-.0599976-.0699463-.1099854-.1398926-.1699829-.1999512-.0599976-.0800781-.1300049-.1500244-.2000122-.2299805-.2871361-.25177-.6026535-.4755211-.960022-.6201172h-.0100098c-.3399658-.1398925-.6900024-.2099608-1.0599975-.2199706z">
                                    </path>
                                    <path
                                        d="m97.5 43.7800293v26.9699707c0 4.8399658-3.9199829 8.7600098-8.7600098 8.7600098h-77.4799814c-4.8400269 0-8.7600098-3.9200439-8.7600098-8.7600098v-26.9699707h27.039979c2.1600342 6.3399658 7.1400146 11.3099365 13.4800415 13.4799805 11.2999878 3.8499756 23.5799561-2.1800537 27.4400024-13.4799805z">
                                    </path>
                                </g>
                            </svg>