<svg id="fi_4314762" enable-background="new 0 0 512 512" height="24" viewBox="0 0 512 512" width="24" xmlns="http://www.w3.org/2000/svg"><circle cx="256" cy="256" fill="#4caf50" r="256"></circle><path d="m256 81.5c-96.22 0-174.5 78.28-174.5 174.5 0 27.801 6.546 54.098 18.161 77.448.012.03.019.06.031.09.251.63.56 1.218.9 1.779 28.93 56.457 87.731 95.183 155.408 95.183 67.645 0 126.423-38.69 155.369-95.103.359-.583.677-1.201.939-1.858.011-.028.018-.057.029-.086 11.616-23.351 18.163-49.65 18.163-77.453 0-96.22-78.28-174.5-174.5-174.5zm138.896 232.435c-18.75-6.709-38.786-11.994-59.732-15.752 1.506-13.634 2.285-27.778 2.285-42.182 0-15.293-.876-30.295-2.57-44.701 20.692-3.698 40.504-8.879 59.062-15.454 8.07 18.434 12.56 38.778 12.56 60.154-.001 20.521-4.135 40.093-11.605 57.935zm-138.896 92.565c-13.053 0-27.286-15.07-38.074-40.311-5.958-13.941-10.637-30.137-13.905-47.798 16.896-2.032 34.287-3.092 51.979-3.092s35.083 1.06 51.978 3.092c-3.268 17.661-7.946 33.857-13.905 47.798-10.787 25.242-25.02 40.311-38.073 40.311zm0-115.201c-18.843 0-37.388 1.144-55.424 3.34-1.336-12.459-2.026-25.414-2.026-38.638 0-14.123.788-27.937 2.308-41.169 17.952 2.174 36.404 3.307 55.142 3.307s37.189-1.133 55.141-3.306c1.521 13.232 2.308 27.046 2.308 41.169 0 13.225-.69 26.179-2.026 38.638-18.035-2.197-36.58-3.341-55.423-3.341zm0-185.799c13.053 0 27.286 15.069 38.073 40.311 5.675 13.279 10.188 28.604 13.428 45.291-16.75 1.995-33.981 3.036-51.501 3.036s-34.751-1.041-51.502-3.036c3.24-16.687 7.752-32.012 13.428-45.291 10.788-25.241 25.021-40.311 38.074-40.311zm126.428 68.94c-16.145 5.507-33.296 9.902-51.181 13.127-3.584-18.794-8.667-36.125-15.104-51.188-3.695-8.646-7.765-16.336-12.146-23.031 32.52 10.971 60.098 32.773 78.431 61.092zm-174.425-61.091c-4.382 6.695-8.451 14.385-12.146 23.031-6.437 15.063-11.52 32.394-15.104 51.188-17.885-3.225-35.036-7.62-51.181-13.127 18.333-28.32 45.91-50.121 78.431-61.092zm-89.943 82.497c18.558 6.574 38.369 11.756 59.061 15.453-1.694 14.406-2.571 29.408-2.571 44.701 0 14.404.78 28.549 2.285 42.182-20.945 3.759-40.98 9.043-59.731 15.752-7.47-17.841-11.604-37.413-11.604-57.934 0-21.376 4.489-41.72 12.56-60.154zm10.182 139.612c16.396-5.677 33.84-10.202 52.053-13.508 3.604 19.75 8.842 37.949 15.562 53.671 3.695 8.646 7.765 16.335 12.146 23.031-33.319-11.241-61.446-33.853-79.761-63.194zm175.754 63.194c4.382-6.696 8.451-14.385 12.146-23.031 6.72-15.723 11.958-33.921 15.562-53.672 18.213 3.307 35.658 7.832 52.053 13.509-18.314 29.341-46.442 51.954-79.761 63.194z" fill="#fff"></path></svg>